<svg width="25" height="24" viewBox="0 0 25 24" fill="none" xmlns="http://www.w3.org/2000/svg">
<path d="M12.98 24C19.6074 24 24.98 18.6274 24.98 12C24.98 5.37258 19.6074 0 12.98 0C6.35256 0 0.97998 5.37258 0.97998 12C0.97998 18.6274 6.35256 24 12.98 24Z" fill="#FFDD67"/>
<path d="M6.98008 15.6C9.41013 15.6 11.3801 13.63 11.3801 11.2C11.3801 8.76993 9.41013 6.79999 6.98008 6.79999C4.55003 6.79999 2.58008 8.76993 2.58008 11.2C2.58008 13.63 4.55003 15.6 6.98008 15.6Z" fill="white"/>
<path d="M18.9801 15.6C21.4101 15.6 23.3801 13.63 23.3801 11.2C23.3801 8.76993 21.4101 6.79999 18.9801 6.79999C16.55 6.79999 14.5801 8.76993 14.5801 11.2C14.5801 13.63 16.55 15.6 18.9801 15.6Z" fill="white"/>
<path d="M14.5801 10C13.8601 9.48002 12.1001 9.48002 11.3801 10C10.9401 9.60002 11.0201 9.16002 10.5801 8.76002C11.8201 7.84002 13.9401 7.68002 15.3801 8.76002C14.9401 9.16002 15.0201 9.60002 14.5801 10Z" fill="#494949"/>
<path d="M18.98 6C16.1 6 13.78 8.32 13.78 11.2C13.78 14.08 16.1 16.4 18.98 16.4C21.86 16.4 24.18 14.08 24.18 11.2C24.18 8.32 21.86 6 18.98 6ZM18.98 15.2C16.78 15.2 14.98 13.4 14.98 11.2C14.98 9 16.78 7.2 18.98 7.2C21.18 7.2 22.98 9 22.98 11.2C22.98 13.4 21.18 15.2 18.98 15.2ZM6.98003 6C4.10003 6 1.78003 8.32 1.78003 11.2C1.78003 14.08 4.10003 16.4 6.98003 16.4C9.86003 16.4 12.18 14.08 12.18 11.2C12.18 8.32 9.86003 6 6.98003 6ZM6.98003 15.2C4.78003 15.2 2.98003 13.4 2.98003 11.2C2.98003 9 4.78003 7.2 6.98003 7.2C9.18003 7.2 10.98 9 10.98 11.2C10.98 13.4 9.18003 15.2 6.98003 15.2Z" fill="#494949"/>
<path d="M8.18008 13.4C9.06373 13.4 9.78008 12.5046 9.78008 11.4C9.78008 10.2954 9.06373 9.39999 8.18008 9.39999C7.29642 9.39999 6.58008 10.2954 6.58008 11.4C6.58008 12.5046 7.29642 13.4 8.18008 13.4Z" fill="#664E27"/>
<path d="M17.7799 13.4C18.6636 13.4 19.3799 12.5045 19.3799 11.4C19.3799 10.2954 18.6636 9.39996 17.7799 9.39996C16.8963 9.39996 16.1799 10.2954 16.1799 11.4C16.1799 12.5045 16.8963 13.4 17.7799 13.4Z" fill="#664E27"/>
<path d="M10.8601 19.72C13.1801 20.32 15.6601 19.88 17.6201 18.52C18.1001 18.16 17.1801 16.92 16.7001 17.24C15.4201 18.16 13.3401 18.76 11.2201 18.2C10.7001 18.08 10.2601 19.56 10.8601 19.72Z" fill="#664E27"/>
<path d="M21.46 5.47999C20.18 4.39999 18.46 3.91999 16.78 4.23999C16.54 4.27999 16.34 3.43999 16.62 3.35999C18.54 2.99999 20.54 3.55999 22.02 4.79999C22.26 4.99999 21.62 5.63999 21.46 5.47999ZM9.17996 4.15999C7.49996 3.87999 5.77996 4.31999 4.49996 5.39999C4.33996 5.55999 3.69996 4.91999 3.93996 4.71999C5.41996 3.43999 7.41996 2.91999 9.33996 3.27999C9.61996 3.35999 9.41996 4.19999 9.17996 4.15999Z" fill="#917524"/>
</svg>
