<svg width="26" height="26" viewBox="0 0 26 26" fill="none" xmlns="http://www.w3.org/2000/svg">
<path d="M19.5896 5.93139H6.40892V19.1121H19.5896V5.93139Z" fill="white"/>
<path d="M19.5895 25.0435L25.5209 19.1121L22.5552 18.6061L19.5896 19.1121L19.0482 21.8248L19.5895 25.0435Z" fill="#EA4335"/>
<path d="M0.477539 19.1121V23.0663C0.477539 24.1587 1.36228 25.0435 2.4546 25.0435H6.40893L7.0179 22.0778L6.40892 19.1121L3.17744 18.6061L0.477539 19.1121Z" fill="#188038"/>
<path d="M25.5209 5.93139V1.97707C25.5209 0.884739 24.6361 0 23.5438 0H19.5895C19.2287 1.47091 19.0482 2.55336 19.0482 3.24743C19.0482 3.94141 19.2288 4.83613 19.5896 5.93139C20.9015 6.30704 21.8898 6.49487 22.5552 6.49487C23.2205 6.49487 24.209 6.30704 25.5209 5.93139Z" fill="#1967D2"/>
<path d="M25.5209 5.93139H19.5896V19.1121L25.5209 19.1121V5.93139Z" fill="#FBBC04"/>
<path d="M19.5896 19.1121H6.40892L6.40893 25.0435H19.5895L19.5896 19.1121Z" fill="#34A853"/>
<path d="M19.5895 0H2.4547C1.36228 0 0.477539 0.884739 0.477539 1.97707V19.1121L6.40892 19.1121V5.93139H19.5896L19.5895 0Z" fill="#4285F4"/>
<path d="M9.11262 16.1564C8.61997 15.8236 8.27885 15.3376 8.09269 14.6948L9.23618 14.2237C9.33987 14.6191 9.52114 14.9256 9.77989 15.1431C10.0369 15.3606 10.3499 15.4677 10.7157 15.4677C11.0897 15.4677 11.4109 15.354 11.6795 15.1266C11.9481 14.8992 12.0832 14.6092 12.0832 14.2583C12.0832 13.8991 11.9415 13.6058 11.6582 13.3785C11.3748 13.1511 11.0189 13.0375 10.5938 13.0375H9.93309V11.9056H10.5262C10.892 11.9056 11.2 11.8067 11.4505 11.6089C11.7009 11.4113 11.8261 11.141 11.8261 10.7967C11.8261 10.4903 11.7141 10.2464 11.4901 10.0636C11.2661 9.88063 10.9826 9.78838 10.6382 9.78838C10.3021 9.78838 10.0352 9.8774 9.83751 10.0569C9.63992 10.237 9.49136 10.4643 9.40581 10.7176L8.27396 10.2464C8.42383 9.82135 8.69901 9.44569 9.10264 9.12111C9.50637 8.79652 10.022 8.63344 10.6481 8.63344C11.1111 8.63344 11.5279 8.72247 11.897 8.90198C12.266 9.08159 12.556 9.33036 12.7653 9.64673C12.9746 9.96466 13.0783 10.3206 13.0783 10.716C13.0783 11.1196 12.9812 11.4607 12.7868 11.7408C12.5923 12.0209 12.3534 12.235 12.07 12.385V12.4525C12.4359 12.6034 12.7538 12.8512 12.9894 13.1692C13.2283 13.4905 13.3486 13.8744 13.3486 14.3226C13.3486 14.7707 13.2348 15.1711 13.0075 15.522C12.7801 15.873 12.4655 16.1497 12.0667 16.3507C11.6664 16.5518 11.2166 16.654 10.7174 16.654C10.139 16.6556 9.60528 16.4892 9.11262 16.1564ZM16.1362 10.482L14.8808 11.3898L14.2531 10.4376L16.5053 8.81295H17.3687V16.476H16.1362V10.482Z" fill="#4285F4"/>
</svg>
