<svg width="26" height="26" viewBox="0 0 26 26" fill="none" xmlns="http://www.w3.org/2000/svg">
<path d="M2.5645 25.6956C2.5645 25.6956 0.477539 25.6956 0.477539 23.6086C0.477539 21.5217 2.5645 15.2608 12.9993 15.2608C23.4341 15.2608 25.521 21.5217 25.521 23.6086C25.521 25.6956 23.4341 25.6956 23.4341 25.6956H2.5645ZM12.9993 13.1738C14.6598 13.1738 16.2522 12.5142 17.4264 11.3401C18.6005 10.1659 19.2601 8.57346 19.2601 6.91297C19.2601 5.25248 18.6005 3.66001 17.4264 2.48587C16.2522 1.31173 14.6598 0.6521 12.9993 0.6521C11.3388 0.6521 9.74632 1.31173 8.57218 2.48587C7.39803 3.66001 6.73841 5.25248 6.73841 6.91297C6.73841 8.57346 7.39803 10.1659 8.57218 11.3401C9.74632 12.5142 11.3388 13.1738 12.9993 13.1738Z" fill="#005CC4"/>
</svg>
