<svg width="27" height="20" viewBox="0 0 27 20" fill="none" xmlns="http://www.w3.org/2000/svg">
<path d="M6.13638 19.9668V9.70054L2.90113 6.78777L0 5.17139V18.1551C0 19.1575 0.825293 19.9668 1.84096 19.9668H6.13638Z" fill="#4285F4"/>
<path d="M20.8633 19.9668H25.1587C26.1774 19.9668 26.9997 19.1545 26.9997 18.1551V5.17151L23.7137 7.02288L20.8633 9.70056V19.9668Z" fill="#34A853"/>
<path d="M6.13652 9.70054L5.69629 5.68921L6.13652 1.84998L13.5001 7.28505L20.8637 1.84998L21.3563 5.48194L20.8637 9.70054L13.5001 15.1356L6.13652 9.70054Z" fill="#EA4335"/>
<path d="M20.8633 1.84998V9.70055L26.9997 5.17139V2.75579C26.9997 0.515398 24.4009 -0.761788 22.5816 0.581826L20.8633 1.84998Z" fill="#FBBC04"/>
<path d="M0 5.17132L2.82224 7.25446L6.13638 9.70047V1.84991L4.41808 0.581752C2.59559 -0.761966 0 0.515324 0 2.75561V5.17121V5.17132Z" fill="#C5221F"/>
</svg>
