<svg width="32" height="32" viewBox="0 0 32 32" fill="none" xmlns="http://www.w3.org/2000/svg">
<path d="M31.5255 12.899H30.2501V12.8333H16.0001V19.1666H24.9483C23.6428 22.8534 20.135 25.5 16.0001 25.5C10.7537 25.5 6.50008 21.2463 6.50008 16C6.50008 10.7536 10.7537 6.49996 16.0001 6.49996C18.4218 6.49996 20.625 7.41354 22.3025 8.90584L26.781 4.42738C23.9532 1.79192 20.1706 0.166626 16.0001 0.166626C7.25612 0.166626 0.166748 7.256 0.166748 16C0.166748 24.7439 7.25612 31.8333 16.0001 31.8333C24.744 31.8333 31.8334 24.7439 31.8334 16C31.8334 14.9383 31.7242 13.902 31.5255 12.899Z" fill="#FFC107"/>
</svg>
