<svg width="16" height="16" viewBox="0 0 16 16" fill="none" xmlns="http://www.w3.org/2000/svg">
<path fill-rule="evenodd" clip-rule="evenodd" d="M0.813477 2.31537C0.813477 3.25723 1.577 4.02075 2.51886 4.02075C3.46072 4.02075 4.22425 3.25723 4.22425 2.31537C4.22425 1.37351 3.46072 0.609985 2.51886 0.609985C1.577 0.609985 0.813477 1.37351 0.813477 2.31537ZM0.813477 7.99999C0.813477 8.94184 1.577 9.70537 2.51886 9.70537C3.46072 9.70537 4.22425 8.94184 4.22425 7.99999C4.22425 7.05813 3.46072 6.2946 2.51886 6.2946C1.577 6.2946 0.813477 7.05813 0.813477 7.99999ZM4.22425 13.6846C4.22425 14.6265 3.46072 15.39 2.51886 15.39C1.577 15.39 0.813477 14.6265 0.813477 13.6846C0.813477 12.7427 1.577 11.9792 2.51886 11.9792C3.46072 11.9792 4.22425 12.7427 4.22425 13.6846ZM6.49819 13.6846C6.49819 14.6265 7.26172 15.39 8.20358 15.39C9.14543 15.39 9.90896 14.6265 9.90896 13.6846C9.90896 12.7427 9.14543 11.9792 8.20358 11.9792C7.26172 11.9792 6.49819 12.7427 6.49819 13.6846ZM15.5934 7.99999C15.5934 8.94184 14.8299 9.70537 13.8881 9.70537C12.9462 9.70537 12.1827 8.94184 12.1827 7.99999C12.1827 7.05813 12.9462 6.2946 13.8881 6.2946C14.8299 6.2946 15.5934 7.05813 15.5934 7.99999ZM6.49819 7.99999C6.49819 8.94184 7.26172 9.70537 8.20358 9.70537C9.14543 9.70537 9.90896 8.94184 9.90896 7.99999C9.90896 7.05813 9.14543 6.2946 8.20358 6.2946C7.26172 6.2946 6.49819 7.05813 6.49819 7.99999ZM15.5934 13.6846C15.5934 14.6265 14.8299 15.39 13.8881 15.39C12.9462 15.39 12.1827 14.6265 12.1827 13.6846C12.1827 12.7427 12.9462 11.9792 13.8881 11.9792C14.8299 11.9792 15.5934 12.7427 15.5934 13.6846ZM13.8881 0.609985C12.9462 0.609985 12.1827 1.37351 12.1827 2.31537C12.1827 3.25723 12.9462 4.02075 13.8881 4.02075C14.8299 4.02075 15.5934 3.25723 15.5934 2.31537C15.5934 1.37351 14.8299 0.609985 13.8881 0.609985ZM9.90896 2.31537C9.90896 3.25723 9.14543 4.02075 8.20358 4.02075C7.26172 4.02075 6.49819 3.25723 6.49819 2.31537C6.49819 1.37351 7.26172 0.609985 8.20358 0.609985C9.14543 0.609985 9.90896 1.37351 9.90896 2.31537Z" fill="#4F4F4F"/>
</svg>
