<svg width="5" height="20" viewBox="0 0 5 20" fill="none" xmlns="http://www.w3.org/2000/svg">
<path d="M2.91719 3.94336C4.04937 3.94336 4.96718 3.08673 4.96718 2.03003C4.96718 0.973327 4.04937 0.116699 2.91719 0.116699C1.785 0.116699 0.867188 0.973327 0.867188 2.03003C0.867188 3.08673 1.785 3.94336 2.91719 3.94336Z" fill="black"/>
<path d="M2.91719 11.5969C4.04937 11.5969 4.96718 10.7403 4.96718 9.68359C4.96718 8.62689 4.04937 7.77026 2.91719 7.77026C1.785 7.77026 0.867188 8.62689 0.867188 9.68359C0.867188 10.7403 1.785 11.5969 2.91719 11.5969Z" fill="black"/>
<path d="M2.91719 19.25C4.04937 19.25 4.96718 18.3934 4.96718 17.3367C4.96718 16.28 4.04937 15.4233 2.91719 15.4233C1.785 15.4233 0.867188 16.28 0.867188 17.3367C0.867188 18.3934 1.785 19.25 2.91719 19.25Z" fill="black"/>
</svg>
