<svg width="28" height="27" viewBox="0 0 28 27" fill="none" xmlns="http://www.w3.org/2000/svg">
<path d="M0.695312 4.73911C0.695312 2.14577 2.79763 0.043457 5.39096 0.043457H22.6084C25.2017 0.043457 27.304 2.14577 27.304 4.73911V21.9565C27.304 24.5498 25.2017 26.6522 22.6084 26.6522H5.39096C2.79763 26.6522 0.695312 24.5498 0.695312 21.9565V4.73911Z" fill="#F4B400"/>
<path d="M8.01285 11.3522C8.01282 10.3636 8.25761 9.39032 8.72537 8.51935C9.19314 7.64837 9.86931 6.90679 10.6935 6.36082C11.5177 5.81485 12.4643 5.48148 13.4487 5.39048C14.4332 5.29948 15.4248 5.45369 16.3351 5.83932C17.2455 6.22496 18.0461 6.83003 18.6656 7.6005C19.2851 8.37097 19.7042 9.28286 19.8853 10.2547C20.0665 11.2266 20.0042 12.2283 19.704 13.1702C19.4038 14.1122 18.8749 14.9651 18.1647 15.6528C17.9622 15.8484 17.8065 16.052 17.7127 16.2705L16.9524 18.0356C16.9138 18.1251 16.8499 18.2013 16.7685 18.2549C16.6871 18.3084 16.5918 18.337 16.4944 18.337H11.5052C11.4076 18.3372 11.3121 18.3087 11.2306 18.2551C11.149 18.2016 11.0849 18.1253 11.0462 18.0356L10.2869 16.2695C10.1782 16.0363 10.0246 15.8267 9.83488 15.6528C9.25776 15.0952 8.79896 14.427 8.48591 13.6881C8.17285 12.9492 8.01196 12.1547 8.01285 11.3522ZM11.0063 19.8337C11.0063 19.7014 11.0589 19.5745 11.1525 19.4809C11.246 19.3874 11.3729 19.3348 11.5052 19.3348H16.4944C16.6267 19.3348 16.7536 19.3874 16.8472 19.4809C16.9407 19.5745 16.9933 19.7014 16.9933 19.8337C16.9933 19.9661 16.9407 20.093 16.8472 20.1865C16.7536 20.2801 16.6267 20.3326 16.4944 20.3326L16.2709 20.7787C16.188 20.9444 16.0607 21.0838 15.9032 21.1812C15.7456 21.2787 15.5641 21.3304 15.3788 21.3305H12.6208C12.4355 21.3304 12.254 21.2787 12.0964 21.1812C11.9389 21.0838 11.8116 20.9444 11.7288 20.7787L11.5052 20.3326C11.3729 20.3326 11.246 20.2801 11.1525 20.1865C11.0589 20.093 11.0063 19.9661 11.0063 19.8337Z" fill="white"/>
</svg>
