<svg width="24" height="24" viewBox="0 0 24 24" fill="none" xmlns="http://www.w3.org/2000/svg">
<path d="M1.43589 8.61338C1.91517 7.13632 2.70125 5.77826 3.74214 4.62899C3.82833 4.53409 3.94054 4.46691 4.06467 4.43592C4.18879 4.40492 4.31927 4.41149 4.43968 4.45479L6.92306 5.34225C7.09946 5.40505 7.28732 5.42874 7.47371 5.41171C7.6601 5.39469 7.84061 5.33734 8.00283 5.24361C8.16505 5.14988 8.30514 5.02199 8.41347 4.86873C8.5218 4.71547 8.5958 4.54048 8.63038 4.35578L9.10515 1.75942C9.1283 1.63322 9.18819 1.51675 9.27724 1.42472C9.3663 1.33268 9.48052 1.26922 9.60547 1.24235C11.1224 0.919218 12.6901 0.919218 14.207 1.24235C14.4627 1.29735 14.6599 1.50088 14.7074 1.75942L15.1821 4.35578C15.2161 4.54079 15.2898 4.71616 15.398 4.86975C15.5062 5.02335 15.6463 5.1515 15.8087 5.24532C15.9711 5.33915 16.1518 5.39642 16.3384 5.41315C16.5251 5.42989 16.7131 5.4057 16.8894 5.34225L19.3728 4.45479C19.4932 4.41149 19.6237 4.40492 19.7478 4.43592C19.872 4.46691 19.9842 4.53409 20.0704 4.62899C21.1094 5.77865 21.8964 7.1355 22.3748 8.61338C22.4143 8.7355 22.4166 8.86668 22.3815 8.99015C22.3464 9.11361 22.2754 9.22375 22.1776 9.30647L20.1653 11.0135C20.0221 11.1345 19.9069 11.2855 19.8279 11.4559C19.7489 11.6263 19.7079 11.812 19.7079 12C19.7079 12.188 19.7489 12.3737 19.8279 12.5441C19.9069 12.7145 20.0221 12.8655 20.1653 12.9865L22.1776 14.6936C22.3784 14.8641 22.4551 15.1373 22.3748 15.3867C21.8961 16.8636 21.1106 18.2216 20.0704 19.371C19.9842 19.4659 19.872 19.5331 19.7478 19.5641C19.6237 19.5951 19.4932 19.5885 19.3728 19.5452L16.8894 18.6578C16.713 18.595 16.5252 18.5713 16.3388 18.5883C16.1524 18.6053 15.9719 18.6627 15.8097 18.7564C15.6475 18.8502 15.5074 18.978 15.399 19.1313C15.2907 19.2846 15.2167 19.4595 15.1821 19.6442L14.7074 22.2406C14.6843 22.3672 14.6242 22.4839 14.5348 22.576C14.4453 22.6681 14.3306 22.7314 14.2052 22.7577C12.6888 23.0808 11.1218 23.0808 9.60547 22.7577C9.48018 22.7311 9.36556 22.6678 9.27616 22.5758C9.18676 22.4837 9.1266 22.3671 9.10332 22.2406L8.63038 19.6442C8.59637 19.4592 8.52272 19.2839 8.41453 19.1303C8.30635 18.9767 8.1662 18.8485 8.00381 18.7547C7.84142 18.6609 7.66066 18.6036 7.47405 18.5869C7.28744 18.5701 7.09944 18.5943 6.92306 18.6578L4.43968 19.5452C4.31927 19.5885 4.18879 19.5951 4.06467 19.5641C3.94054 19.5331 3.82833 19.4659 3.74214 19.371C2.70191 18.2216 1.91646 16.8636 1.43771 15.3867C1.39819 15.2645 1.39585 15.1334 1.43098 15.0099C1.46611 14.8864 1.53712 14.7763 1.63492 14.6936L3.64719 12.9865C3.79017 12.8653 3.90508 12.7143 3.98391 12.5439C4.06274 12.3735 4.10358 12.1879 4.10358 12C4.10358 11.8121 4.06274 11.6265 3.98391 11.4562C3.90508 11.2858 3.79017 11.1347 3.64719 11.0135L1.63492 9.30647C1.53712 9.22375 1.46611 9.11361 1.43098 8.99015C1.39585 8.86668 1.39819 8.7355 1.43771 8.61338H1.43589ZM8.7089 12C8.7089 12.851 9.04557 13.6672 9.64485 14.269C10.2441 14.8707 11.0569 15.2088 11.9044 15.2088C12.7519 15.2088 13.5647 14.8707 14.164 14.269C14.7633 13.6672 15.0999 12.851 15.0999 12C15.0999 11.149 14.7633 10.3328 14.164 9.73106C13.5647 9.1293 12.7519 8.79123 11.9044 8.79123C11.0569 8.79123 10.2441 9.1293 9.64485 9.73106C9.04557 10.3328 8.7089 11.149 8.7089 12Z" stroke="#4F4F4F" stroke-width="2"/>
<circle cx="11.6924" cy="12" r="3" fill="#4F4F4F"/>
</svg>
