<svg width="20" height="20" viewBox="0 0 20 20" fill="none" xmlns="http://www.w3.org/2000/svg">
<path d="M9.7649 4.57666C10.0186 4.57666 10.262 4.67745 10.4414 4.85686C10.6208 5.03627 10.7216 5.2796 10.7216 5.53333V11.2733C10.7216 11.527 10.6208 11.7704 10.4414 11.9498C10.262 12.1292 10.0186 12.23 9.7649 12.23C9.51118 12.23 9.26784 12.1292 9.08843 11.9498C8.90903 11.7704 8.80823 11.527 8.80823 11.2733V5.53333C8.80823 5.2796 8.90903 5.03627 9.08843 4.85686C9.26784 4.67745 9.51118 4.57666 9.7649 4.57666ZM9.7649 14.1433C9.51118 14.1433 9.26784 14.2441 9.08843 14.4235C8.90903 14.6029 8.80823 14.8463 8.80823 15.1C8.80823 15.3537 8.90903 15.597 9.08843 15.7765C9.26784 15.9559 9.51118 16.0567 9.7649 16.0567C10.0186 16.0567 10.262 15.9559 10.4414 15.7765C10.6208 15.597 10.7216 15.3537 10.7216 15.1C10.7216 14.8463 10.6208 14.6029 10.4414 14.4235C10.262 14.2441 10.0186 14.1433 9.7649 14.1433Z" fill="#4F4F4F"/>
<path fill-rule="evenodd" clip-rule="evenodd" d="M9.7649 0.75C4.48123 0.75 0.198242 5.03299 0.198242 10.3167C0.198242 15.6003 4.48123 19.8833 9.7649 19.8833C15.0486 19.8833 19.3316 15.6003 19.3316 10.3167C19.3316 5.03299 15.0486 0.75 9.7649 0.75ZM2.11157 10.3167C2.11157 12.3464 2.9179 14.2931 4.35318 15.7284C5.78846 17.1637 7.73511 17.97 9.7649 17.97C11.7947 17.97 13.7413 17.1637 15.1766 15.7284C16.6119 14.2931 17.4182 12.3464 17.4182 10.3167C17.4182 8.28687 16.6119 6.34022 15.1766 4.90494C13.7413 3.46966 11.7947 2.66333 9.7649 2.66333C7.73511 2.66333 5.78846 3.46966 4.35318 4.90494C2.9179 6.34022 2.11157 8.28687 2.11157 10.3167Z" fill="#4F4F4F"/>
</svg>
