<svg width="22" height="20" viewBox="0 0 22 20" fill="none" xmlns="http://www.w3.org/2000/svg">
<path d="M9.92769 19.25C8.63868 19.25 7.42731 18.9987 6.2936 18.4962C5.15989 17.9942 4.17372 17.3128 3.33508 16.4518C2.49645 15.5908 1.83641 14.5783 1.35497 13.4144C0.873532 12.2504 0.632812 11.0067 0.632812 9.68336C0.632812 8.35997 0.87757 7.1163 1.36708 5.95236C1.85598 4.78842 2.51974 3.77595 3.35838 2.91495C4.19701 2.05395 5.18319 1.37216 6.3169 0.869595C7.45061 0.367664 8.66197 0.116699 9.95098 0.116699C10.6964 0.116699 11.4382 0.212366 12.1762 0.403699C12.9135 0.595032 13.6317 0.874059 14.3305 1.24078C14.5635 1.36834 14.7073 1.5635 14.762 1.82626C14.816 2.08966 14.7576 2.33297 14.5868 2.5562C14.4315 2.76347 14.2296 2.899 13.9811 2.96278C13.7326 3.02656 13.4997 2.99467 13.2822 2.86711C12.7542 2.59606 12.2106 2.38878 11.6516 2.24528C11.0925 2.10178 10.5256 2.03003 9.95098 2.03003C7.88546 2.03003 6.12681 2.77527 4.67504 4.26576C3.22264 5.75688 2.49645 7.56275 2.49645 9.68336C2.49645 11.804 3.22264 13.6098 4.67504 15.101C6.12681 16.5914 7.88546 17.3367 9.95098 17.3367C10.4014 17.3367 10.8284 17.3006 11.2322 17.2286C11.636 17.1571 12.0243 17.0497 12.397 16.9062C12.5989 16.8265 12.7971 16.8226 12.9915 16.8947C13.1853 16.9661 13.3599 17.0895 13.5152 17.2649C13.7171 17.5041 13.7755 17.7713 13.6904 18.0666C13.6046 18.3613 13.4065 18.5724 13.0959 18.6999C12.6144 18.8753 12.1097 19.0108 11.5817 19.1065C11.0536 19.2022 10.5023 19.25 9.92769 19.25ZM7.99417 13.4144L5.31519 10.6639C5.14436 10.4885 5.06298 10.2692 5.07106 10.0058C5.07851 9.74299 5.16766 9.52391 5.33849 9.34852C5.50932 9.17313 5.72675 9.08544 5.99076 9.08544C6.25478 9.08544 6.4722 9.17313 6.64303 9.34852L8.64644 11.4054L17.3356 2.46053C17.5065 2.28514 17.7202 2.20127 17.9767 2.20893C18.2327 2.21722 18.4461 2.30906 18.6169 2.48445C18.7877 2.65984 18.8731 2.88306 18.8731 3.15411C18.8731 3.42517 18.7877 3.64839 18.6169 3.82378L9.29871 13.4144C9.12788 13.5897 8.91046 13.6774 8.64644 13.6774C8.38243 13.6774 8.165 13.5897 7.99417 13.4144ZM17.4055 17.3367C17.1415 17.3367 16.9204 17.2448 16.7421 17.0612C16.5632 16.8781 16.4737 16.6511 16.4737 16.38V14.4667H14.6101C14.3461 14.4667 14.1249 14.3748 13.9466 14.1912C13.7677 14.0081 13.6783 13.7811 13.6783 13.51C13.6783 13.239 13.7677 13.0116 13.9466 12.8279C14.1249 12.6449 14.3461 12.5534 14.6101 12.5534H16.4737V10.64C16.4737 10.369 16.5632 10.1416 16.7421 9.95792C16.9204 9.77488 17.1415 9.68336 17.4055 9.68336C17.6695 9.68336 17.8907 9.77488 18.069 9.95792C18.2479 10.1416 18.3373 10.369 18.3373 10.64V12.5534H20.201C20.465 12.5534 20.6861 12.6449 20.8644 12.8279C21.0433 13.0116 21.1328 13.239 21.1328 13.51C21.1328 13.7811 21.0433 14.0081 20.8644 14.1912C20.6861 14.3748 20.465 14.4667 20.201 14.4667H18.3373V16.38C18.3373 16.6511 18.2479 16.8781 18.069 17.0612C17.8907 17.2448 17.6695 17.3367 17.4055 17.3367Z" fill="#4F4F4F"/>
</svg>
