<svg width="19" height="20" viewBox="0 0 19 20" fill="none" xmlns="http://www.w3.org/2000/svg">
<path d="M7.40828 16.0567C7.67005 16.0567 7.92111 15.9559 8.10622 15.7765C8.29132 15.597 8.39531 15.3537 8.39531 15.1V9.35999C8.39531 9.10627 8.29132 8.86294 8.10622 8.68353C7.92111 8.50412 7.67005 8.40333 7.40828 8.40333C7.1465 8.40333 6.89544 8.50412 6.71034 8.68353C6.52523 8.86294 6.42124 9.10627 6.42124 9.35999V15.1C6.42124 15.3537 6.52523 15.597 6.71034 15.7765C6.89544 15.9559 7.1465 16.0567 7.40828 16.0567ZM17.2786 4.57666H13.3305V3.62C13.3305 2.85883 13.0185 2.12883 12.4632 1.5906C11.9079 1.05237 11.1547 0.75 10.3694 0.75H8.39531C7.60998 0.75 6.85681 1.05237 6.30149 1.5906C5.74618 2.12883 5.4342 2.85883 5.4342 3.62V4.57666H1.48606C1.22428 4.57666 0.973225 4.67745 0.78812 4.85686C0.603014 5.03627 0.499023 5.2796 0.499023 5.53333C0.499023 5.78705 0.603014 6.03038 0.78812 6.20979C0.973225 6.3892 1.22428 6.48999 1.48606 6.48999H2.4731V17.0133C2.4731 17.7745 2.78507 18.5045 3.34038 19.0427C3.8957 19.5809 4.64887 19.8833 5.4342 19.8833H13.3305C14.1158 19.8833 14.869 19.5809 15.4243 19.0427C15.9796 18.5045 16.2916 17.7745 16.2916 17.0133V6.48999H17.2786C17.5404 6.48999 17.7915 6.3892 17.9766 6.20979C18.1617 6.03038 18.2657 5.78705 18.2657 5.53333C18.2657 5.2796 18.1617 5.03627 17.9766 4.85686C17.7915 4.67745 17.5404 4.57666 17.2786 4.57666ZM7.40828 3.62C7.40828 3.36627 7.51227 3.12294 7.69737 2.94353C7.88248 2.76412 8.13353 2.66333 8.39531 2.66333H10.3694C10.6312 2.66333 10.8822 2.76412 11.0673 2.94353C11.2524 3.12294 11.3564 3.36627 11.3564 3.62V4.57666H7.40828V3.62ZM14.3175 17.0133C14.3175 17.267 14.2135 17.5104 14.0284 17.6898C13.8433 17.8692 13.5923 17.97 13.3305 17.97H5.4342C5.17243 17.97 4.92137 17.8692 4.73626 17.6898C4.55116 17.5104 4.44717 17.267 4.44717 17.0133V6.48999H14.3175V17.0133ZM11.3564 16.0567C11.6182 16.0567 11.8693 15.9559 12.0544 15.7765C12.2395 15.597 12.3435 15.3537 12.3435 15.1V9.35999C12.3435 9.10627 12.2395 8.86294 12.0544 8.68353C11.8693 8.50412 11.6182 8.40333 11.3564 8.40333C11.0946 8.40333 10.8436 8.50412 10.6585 8.68353C10.4734 8.86294 10.3694 9.10627 10.3694 9.35999V15.1C10.3694 15.3537 10.4734 15.597 10.6585 15.7765C10.8436 15.9559 11.0946 16.0567 11.3564 16.0567Z" fill="#4F4F4F"/>
</svg>
