<svg width="19" height="17" viewBox="0 0 19 17" fill="none" xmlns="http://www.w3.org/2000/svg">
<path d="M2.04229 0.116699H16.2556L18.0323 3.76114V15.6056C18.0323 15.8472 17.9387 16.079 17.7721 16.2498C17.6055 16.4207 17.3795 16.5167 17.1439 16.5167H1.15396C0.918357 16.5167 0.692406 16.4207 0.525811 16.2498C0.359217 16.079 0.265625 15.8472 0.265625 15.6056V3.76478L2.04229 0.116699ZM16.2556 5.58336H2.04229V14.6945H16.2556V5.58336ZM16.046 3.76114L15.1576 1.93892H3.14116L2.25282 3.76114H16.046ZM10.0373 10.1389H12.7023L9.14895 13.7834L5.59562 10.1389H8.26062V6.49447H10.0373V10.1389Z" fill="#4F4F4F"/>
</svg>
