<svg width="24" height="17" viewBox="0 0 24 17" fill="none" xmlns="http://www.w3.org/2000/svg">
<path d="M17.2576 16.8834H2.46842C1.93811 16.8808 1.43027 16.6743 1.05528 16.3087C0.680285 15.9431 0.468452 15.448 0.46582 14.931V2.43578C0.468452 1.91877 0.680285 1.42366 1.05528 1.05807C1.43027 0.692485 1.93811 0.485965 2.46842 0.483399H17.2576C17.5881 0.483245 17.9135 0.562427 18.2051 0.713951C18.4968 0.865476 18.7456 1.08468 18.9298 1.35221L23.4957 8.02934C23.6283 8.22116 23.6991 8.4472 23.6991 8.67851C23.6991 8.90982 23.6283 9.13586 23.4957 9.32768L18.9298 16.0146C18.7456 16.2821 18.4968 16.5013 18.2051 16.6528C17.9135 16.8044 17.5881 16.8835 17.2576 16.8834ZM2.86894 14.5405H17.0473L21.0525 8.68339L17.0473 2.82625H2.86894V14.5405Z" fill="#4F4F4F"/>
</svg>
