<svg width="20" height="20" viewBox="0 0 20 20" fill="none" xmlns="http://www.w3.org/2000/svg">
<path d="M10.1124 17.739C14.436 17.739 17.9735 14.2015 17.9735 9.87793C17.9735 5.55436 14.436 2.01689 10.1124 2.01689C5.78886 2.01689 2.25139 5.55436 2.25139 9.87793C2.25139 14.2015 5.78886 17.739 10.1124 17.739ZM10.1124 0.0516357C15.5169 0.0516357 19.9387 4.47347 19.9387 9.87793C19.9387 15.2824 15.5169 19.7042 10.1124 19.7042C4.70796 19.7042 0.286133 15.2824 0.286133 9.87793C0.286133 4.47347 4.70796 0.0516357 10.1124 0.0516357ZM15.0256 11.7449L14.3377 13.0223L9.1298 10.1727V4.96478H10.6037V9.28835L15.0256 11.7449Z" fill="#4F4F4F"/>
</svg>
