<svg width="20" height="20" viewBox="0 0 20 20" fill="none" xmlns="http://www.w3.org/2000/svg">
<path d="M9.89869 17.3367C14.108 17.3367 17.552 13.8927 17.552 9.68336C17.552 5.47403 14.108 2.03003 9.89869 2.03003C5.68936 2.03003 2.24536 5.47403 2.24536 9.68336C2.24536 13.8927 5.68936 17.3367 9.89869 17.3367ZM9.89869 0.116699C15.1603 0.116699 19.4653 4.42169 19.4653 9.68336C19.4653 14.945 15.1603 19.25 9.89869 19.25C4.63703 19.25 0.332031 14.945 0.332031 9.68336C0.332031 4.42169 4.63703 0.116699 9.89869 0.116699ZM14.682 11.501L14.0124 12.7447L8.94202 9.97036V4.90003H10.377V9.10936L14.682 11.501Z" fill="#4F4F4F"/>
</svg>
