<svg width="18" height="12" viewBox="0 0 18 12" fill="none" xmlns="http://www.w3.org/2000/svg">
<path fill-rule="evenodd" clip-rule="evenodd" d="M12.5786 8.31415C12.1881 7.92362 12.1881 7.29046 12.5786 6.89993L15.0858 4.39275L12.5786 1.88557C12.1881 1.49505 12.1881 0.861884 12.5786 0.47136C12.9691 0.0808357 13.6023 0.0808357 13.9928 0.47136L17.2071 3.68565C17.5976 4.07617 17.5976 4.70934 17.2071 5.09986L13.9928 8.31415C13.6023 8.70467 12.9691 8.70467 12.5786 8.31415Z" fill="#4F4F4F"/>
<path fill-rule="evenodd" clip-rule="evenodd" d="M1.50008 11.8214C0.947794 11.8214 0.500078 11.3736 0.500078 10.8214V9.8169C0.500078 6.35587 3.2516 3.39279 6.75276 3.39279H15.4286C15.9809 3.39279 16.4286 3.84051 16.4286 4.39279C16.4286 4.94508 15.9809 5.39279 15.4286 5.39279H6.75276C4.43038 5.39279 2.50008 7.38474 2.50008 9.8169V10.8214C2.50008 11.3736 2.05236 11.8214 1.50008 11.8214Z" fill="#4F4F4F"/>
</svg>
