<svg width="18" height="12" viewBox="0 0 18 12" fill="none" xmlns="http://www.w3.org/2000/svg">
<path fill-rule="evenodd" clip-rule="evenodd" d="M5.42139 8.31415C5.81192 7.92362 5.81192 7.29046 5.42139 6.89993L2.91421 4.39275L5.42139 1.88557C5.81192 1.49505 5.81192 0.861884 5.42139 0.47136C5.03087 0.0808357 4.3977 0.0808357 4.00718 0.47136L0.792893 3.68565C0.402369 4.07617 0.402369 4.70934 0.792893 5.09986L4.00718 8.31415C4.3977 8.70467 5.03087 8.70467 5.42139 8.31415Z" fill="#4F4F4F"/>
<path fill-rule="evenodd" clip-rule="evenodd" d="M16.4999 11.8214C17.0522 11.8214 17.4999 11.3736 17.4999 10.8214V9.8169C17.4999 6.35587 14.7484 3.39279 11.2472 3.39279H2.57135C2.01907 3.39279 1.57135 3.84051 1.57135 4.39279C1.57135 4.94508 2.01907 5.39279 2.57135 5.39279H11.2472C13.5696 5.39279 15.4999 7.38474 15.4999 9.8169V10.8214C15.4999 11.3736 15.9476 11.8214 16.4999 11.8214Z" fill="#4F4F4F"/>
</svg>
